#N canvas 644 105 796 590 10;
#N canvas 546 36 638 686 storysquare 0;
#X obj 482 595 outlet;
#X obj 556 598 outlet;
#X obj 363 255 pianoroll pianoroll1 192 186 0 1 31 16 0 0 1 0.566667
1 0 0 0.566667 0.733333 0 0 0.433333 1 0 1 0.5 0.6 0 0 0.633333 0.7
0.833333 0.9 0 0 0 0 0.5 0.566667 0.633333 0.9 0 0 0 0;
#X obj 149 255 pianoroll pianoroll1 192 186 -0 1 31 16 0 0 1 0 0 0
0 0 0 0 0 0.4 0 0.9 0 0.9 0 0.9 0 0.9 0.366667 0 0.666667 0 1 0 1 0
1 0 1 0 1 0 0;
#X obj 148 23 pianoroll pianoroll2 192 186 0 1 31 16 0 0 1 0 1 0 1
0 1 0 1 0 1 0 1 0 1 0.2 0.933333 0.333333 0.9 0.433333 0.866667 0.5
0.866667 0.566667 0.9 0.633333 0.966667 0.666667 1 0.733333 1 0.733333
0;
#X obj 368 480 makenote;
#X obj 369 519 noteout;
#X text 477 519 midi channel;
#X obj 450 480 100;
#X obj 363 23 pianoroll pianoroll2 192 186 0 1 31 16 0 0 1 0 0 0.6
0 0.833333 0 0.866667 0 0.9 0 0.866667 0 0.866667 0 0.866667 0 0.866667
0 0.866667 0 0.6 0 0.433333 0 0.233333 0 0.166667 0 0.0333333 0 0 0
;
#X text 147 211 hue;
#X text 325 210 sat;
#X text 365 210 value;
#X obj 9 -4 inlet;
#X obj 290 600 outlet;
#X obj 157 551 nbx 2 14 -1e+37 1e+37 0 0 empty empty step 30 8 0 10
-262144 -1 -1 0 256;
#X obj 204 576 nbx 3 20 -1e+37 1e+37 0 0 empty empty white 0 28 0 10
-262144 -1 -1 0 256;
#X obj 157 576 nbx 3 20 -1e+37 1e+37 0 0 empty empty uv 0 28 0 10 -159808
-1 -1 0 256;
#X obj 157 528 bng 15 250 50 0 empty empty touch 20 7 0 10 -262144
-1 -1;
#X obj 16 528 colorswatch;
#N canvas 0 22 288 443 produceRGB 0;
#X obj 27 35 inlet;
#X text 27 17 H;
#X obj 71 35 inlet;
#X obj 114 35 inlet;
#X text 71 17 S;
#X text 114 17 V;
#X obj 188 35 inlet;
#X text 188 17 ramp time;
#X obj 54 231 hsv2rgb;
#X obj 71 129 t b f;
#X obj 115 129 t b f;
#X obj 51 362 pack 0 0 0;
#X obj 54 204 pack f f f;
#X obj 54 259 unpack f f f;
#X obj 49 295 * 255;
#X obj 92 295 * 255;
#X obj 134 294 * 255;
#X obj 70 75 line;
#X obj 115 75 line;
#X obj 26 75 line;
#X obj 51 407 outlet;
#X obj 55 336 int;
#X obj 89 337 int;
#X obj 126 337 int;
#X connect 0 0 19 0;
#X connect 2 0 17 0;
#X connect 3 0 18 0;
#X connect 6 0 19 1;
#X connect 6 0 17 1;
#X connect 6 0 18 1;
#X connect 8 0 13 0;
#X connect 9 0 12 0;
#X connect 9 1 12 1;
#X connect 10 0 12 0;
#X connect 10 1 12 2;
#X connect 11 0 20 0;
#X connect 12 0 8 0;
#X connect 13 0 14 0;
#X connect 13 1 15 0;
#X connect 13 2 16 0;
#X connect 14 0 21 0;
#X connect 15 0 22 0;
#X connect 16 0 23 0;
#X connect 17 0 9 0;
#X connect 18 0 10 0;
#X connect 19 0 12 0;
#X connect 21 0 11 0;
#X connect 22 0 11 1;
#X connect 23 0 11 2;
#X restore 10 243 pd produceRGB;
#X text 476 476 duration;
#X text 362 232 MIDI Note Sequence;
#X text 147 1 RGB Sequence;
#X text 148 233 UV+W Sequence;
#X text 557 618 white;
#X text 483 615 uv;
#X text 368 444 pitch;
#X text 505 445 velocity;
#N canvas 0 22 450 300 oneShotClock 0;
#X obj 52 141 + 1;
#X obj 20 141 f 0;
#X obj 142 102 select 1;
#X msg 62 9 stop;
#X msg 142 126 0;
#X obj 8 -6 inlet;
#X obj 20 39 metro;
#X obj 20 93 t b b;
#X obj 21 201 outlet;
#X obj 95 202 outlet;
#X text 20 225 step count;
#X text 93 224 step time;
#X obj 114 0 inlet;
#X msg 92 56 500;
#X obj 142 79 >= 16;
#X connect 0 0 1 1;
#X connect 1 0 0 0;
#X connect 1 0 8 0;
#X connect 1 0 14 0;
#X connect 2 0 3 0;
#X connect 2 0 4 0;
#X connect 3 0 6 0;
#X connect 4 0 1 0;
#X connect 5 0 6 0;
#X connect 6 0 7 0;
#X connect 7 0 1 0;
#X connect 7 1 13 0;
#X connect 12 0 13 0;
#X connect 13 0 6 1;
#X connect 13 0 9 0;
#X connect 14 0 2 0;
#X restore 9 26 pd oneShotClock;
#X msg 85 -5 700;
#X text 112 -5 ms;
#N canvas 28 398 249 192 produceUV_W 0;
#X obj 12 37 line;
#X obj 13 60 * 255;
#X obj 14 84 int;
#X obj 12 13 inlet;
#X obj 15 115 outlet;
#X obj 74 39 line;
#X obj 75 62 * 255;
#X obj 76 86 int;
#X obj 74 15 inlet;
#X obj 77 117 outlet;
#X obj 136 14 inlet;
#X connect 0 0 1 0;
#X connect 1 0 2 0;
#X connect 2 0 4 0;
#X connect 3 0 0 0;
#X connect 5 0 6 0;
#X connect 6 0 7 0;
#X connect 7 0 9 0;
#X connect 8 0 5 0;
#X connect 10 0 5 1;
#X connect 10 0 0 1;
#X restore 208 459 pd produceUV_W;
#X text 147 445 uv;
#X text 311 447 white;
#X obj 451 520 1;
#X obj 340 600 outlet;
#X obj 389 603 outlet;
#X obj 438 595 outlet;
#X text 290 619 red;
#X obj 295 551 unpack f f f;
#X text 339 626 -;
#X text 389 625 blue;
#X text 438 615 green;
#X obj 346 578 0;
#X connect 2 0 5 0;
#X connect 2 1 5 1;
#X connect 3 0 32 0;
#X connect 3 1 32 1;
#X connect 4 0 20 0;
#X connect 4 1 20 1;
#X connect 5 0 6 0;
#X connect 5 1 6 1;
#X connect 8 0 5 2;
#X connect 9 0 20 2;
#X connect 13 0 29 0;
#X connect 18 0 29 0;
#X connect 20 0 19 0;
#X connect 20 0 40 0;
#X connect 29 0 4 0;
#X connect 29 0 9 0;
#X connect 29 0 3 0;
#X connect 29 0 2 0;
#X connect 29 0 15 0;
#X connect 29 1 20 3;
#X connect 29 1 32 2;
#X connect 30 0 29 1;
#X connect 32 0 0 0;
#X connect 32 0 17 0;
#X connect 32 1 1 0;
#X connect 32 1 16 0;
#X connect 35 0 6 2;
#X connect 40 0 14 0;
#X connect 40 1 38 0;
#X connect 40 2 37 0;
#X connect 44 0 36 0;
#X coords 0 -1 1 1 240 112 1 10 508;
#X restore 11 12 pd storysquare;
#N canvas 546 36 638 686 storysquare 0;
#X obj 482 595 outlet;
#X obj 556 598 outlet;
#X obj 363 255 pianoroll pianoroll1 192 186 0 1 31 16 0 0 1 0.566667
1 0 0 0.566667 0.733333 0 0 0.433333 1 0 1 0.5 0.6 0 0 0.633333 0.7
0.833333 0.9 0 0 0 0 0.5 0.566667 0.633333 0.9 0 0 0 0;
#X obj 149 255 pianoroll pianoroll1 192 186 -0 1 31 16 0 0 1 0 0 0
0 0 0 0 0 0.4 0 0.9 0 0.9 0 0.9 0 0.9 0.366667 0 0.666667 0 1 0 1 0
1 0 1 0 1 0 0;
#X obj 148 23 pianoroll pianoroll2 192 186 0 1 31 16 0 0 1 0 1 0 1
0 1 0 1 0 1 0 1 0 1 0.2 0.933333 0.333333 0.9 0.433333 0.866667 0.5
0.866667 0.566667 0.9 0.633333 0.966667 0.666667 1 0.733333 1 0.733333
0;
#X obj 368 480 makenote;
#X obj 369 519 noteout;
#X text 477 519 midi channel;
#X obj 450 480 100;
#X obj 363 23 pianoroll pianoroll2 192 186 0 1 31 16 0 0 1 0 0 0.6
0 0.833333 0 0.866667 0 0.9 0 0.866667 0 0.866667 0 0.866667 0 0.866667
0 0.866667 0 0.6 0 0.433333 0 0.233333 0 0.166667 0 0.0333333 0 0 0
;
#X text 147 211 hue;
#X text 325 210 sat;
#X text 365 210 value;
#X obj 9 -4 inlet;
#X obj 290 600 outlet;
#X obj 157 551 nbx 2 14 -1e+37 1e+37 0 0 empty empty step 30 8 0 10
-262144 -1 -1 0 256;
#X obj 204 576 nbx 3 20 -1e+37 1e+37 0 0 empty empty white 0 28 0 10
-262144 -1 -1 0 256;
#X obj 157 576 nbx 3 20 -1e+37 1e+37 0 0 empty empty uv 0 28 0 10 -159808
-1 -1 0 256;
#X obj 157 528 bng 15 250 50 0 empty empty touch 20 7 0 10 -262144
-1 -1;
#X obj 16 528 colorswatch;
#N canvas 0 22 288 443 produceRGB 0;
#X obj 27 35 inlet;
#X text 27 17 H;
#X obj 71 35 inlet;
#X obj 114 35 inlet;
#X text 71 17 S;
#X text 114 17 V;
#X obj 188 35 inlet;
#X text 188 17 ramp time;
#X obj 54 231 hsv2rgb;
#X obj 71 129 t b f;
#X obj 115 129 t b f;
#X obj 51 361 pack 0 0 0;
#X obj 54 204 pack f f f;
#X obj 54 259 unpack f f f;
#X obj 49 295 * 255;
#X obj 92 295 * 255;
#X obj 134 294 * 255;
#X obj 70 75 line;
#X obj 115 75 line;
#X obj 26 75 line;
#X obj 51 406 outlet;
#X obj 48 332 int;
#X obj 82 333 int;
#X obj 119 333 int;
#X connect 0 0 19 0;
#X connect 2 0 17 0;
#X connect 3 0 18 0;
#X connect 6 0 19 1;
#X connect 6 0 17 1;
#X connect 6 0 18 1;
#X connect 8 0 13 0;
#X connect 9 0 12 0;
#X connect 9 1 12 1;
#X connect 10 0 12 0;
#X connect 10 1 12 2;
#X connect 11 0 20 0;
#X connect 12 0 8 0;
#X connect 13 0 14 0;
#X connect 13 1 15 0;
#X connect 13 2 16 0;
#X connect 14 0 21 0;
#X connect 15 0 22 0;
#X connect 16 0 23 0;
#X connect 17 0 9 0;
#X connect 18 0 10 0;
#X connect 19 0 12 0;
#X connect 21 0 11 0;
#X connect 22 0 11 1;
#X connect 23 0 11 2;
#X restore 10 243 pd produceRGB;
#X text 476 476 duration;
#X text 362 232 MIDI Note Sequence;
#X text 147 1 RGB Sequence;
#X text 148 233 UV+W Sequence;
#X text 557 618 white;
#X text 483 615 uv;
#X text 368 444 pitch;
#X text 505 445 velocity;
#N canvas 0 22 450 300 oneShotClock 0;
#X obj 52 141 + 1;
#X obj 20 141 f 0;
#X obj 142 102 select 1;
#X msg 62 9 stop;
#X msg 142 126 0;
#X obj 8 -6 inlet;
#X obj 20 39 metro;
#X obj 20 93 t b b;
#X obj 21 201 outlet;
#X obj 95 202 outlet;
#X text 20 225 step count;
#X text 93 224 step time;
#X obj 114 0 inlet;
#X msg 92 56 500;
#X obj 142 79 >= 16;
#X connect 0 0 1 1;
#X connect 1 0 0 0;
#X connect 1 0 8 0;
#X connect 1 0 14 0;
#X connect 2 0 3 0;
#X connect 2 0 4 0;
#X connect 3 0 6 0;
#X connect 4 0 1 0;
#X connect 5 0 6 0;
#X connect 6 0 7 0;
#X connect 7 0 1 0;
#X connect 7 1 13 0;
#X connect 12 0 13 0;
#X connect 13 0 6 1;
#X connect 13 0 9 0;
#X connect 14 0 2 0;
#X restore 9 26 pd oneShotClock;
#X msg 85 -5 700;
#X text 112 -5 ms;
#N canvas 28 398 249 192 produceUV_W 0;
#X obj 12 37 line;
#X obj 13 60 * 255;
#X obj 14 84 int;
#X obj 12 13 inlet;
#X obj 15 115 outlet;
#X obj 74 39 line;
#X obj 75 62 * 255;
#X obj 76 86 int;
#X obj 74 15 inlet;
#X obj 77 117 outlet;
#X obj 136 14 inlet;
#X connect 0 0 1 0;
#X connect 1 0 2 0;
#X connect 2 0 4 0;
#X connect 3 0 0 0;
#X connect 5 0 6 0;
#X connect 6 0 7 0;
#X connect 7 0 9 0;
#X connect 8 0 5 0;
#X connect 10 0 5 1;
#X connect 10 0 0 1;
#X restore 208 459 pd produceUV_W;
#X text 147 445 uv;
#X text 311 447 white;
#X obj 451 520 1;
#X obj 340 600 outlet;
#X obj 389 603 outlet;
#X obj 438 595 outlet;
#X text 290 619 red;
#X obj 295 551 unpack f f f;
#X text 339 626 -;
#X text 389 625 blue;
#X text 438 615 green;
#X obj 346 578 0;
#X connect 2 0 5 0;
#X connect 2 1 5 1;
#X connect 3 0 32 0;
#X connect 3 1 32 1;
#X connect 4 0 20 0;
#X connect 4 1 20 1;
#X connect 5 0 6 0;
#X connect 5 1 6 1;
#X connect 8 0 5 2;
#X connect 9 0 20 2;
#X connect 13 0 29 0;
#X connect 18 0 29 0;
#X connect 20 0 19 0;
#X connect 20 0 40 0;
#X connect 29 0 4 0;
#X connect 29 0 9 0;
#X connect 29 0 3 0;
#X connect 29 0 2 0;
#X connect 29 0 15 0;
#X connect 29 1 20 3;
#X connect 29 1 32 2;
#X connect 30 0 29 1;
#X connect 32 0 0 0;
#X connect 32 0 17 0;
#X connect 32 1 1 0;
#X connect 32 1 16 0;
#X connect 35 0 6 2;
#X connect 40 0 14 0;
#X connect 40 1 38 0;
#X connect 40 2 37 0;
#X connect 44 0 36 0;
#X coords 0 -1 1 1 240 112 1 10 508;
#X restore 277 12 pd storysquare;
#X obj -109 103 route 0 1;
#X obj -110 -33 python-interface;
#X obj -109 49 route touch;
#X obj -64 4 print;
#X obj 18 174 pack f f f f f f f f f f f f;
#X obj 17 204 list prepend lightdata;
#X connect 0 0 6 0;
#X connect 0 1 6 1;
#X connect 0 2 6 2;
#X connect 0 3 6 3;
#X connect 0 4 6 4;
#X connect 0 5 6 5;
#X connect 1 0 6 6;
#X connect 1 1 6 7;
#X connect 1 2 6 8;
#X connect 1 3 6 9;
#X connect 1 4 6 10;
#X connect 1 5 6 11;
#X connect 2 0 0 0;
#X connect 2 1 1 0;
#X connect 3 0 4 0;
#X connect 3 0 5 0;
#X connect 4 0 2 0;
#X connect 6 0 7 0;
#X connect 7 0 3 0;
