#N canvas 0 22 631 816 10;
#N canvas 661 28 715 806 storysquare 1;
#X text 539 708 rgb;
#X obj 400 730 outlet;
#X text 398 710 white;
#X obj 459 730 outlet;
#X text 461 709 uv;
#X obj 34 172 pianoroll pianoroll1 192 186 0 1 31 16 0 0 1 0.566667
1 0 0 0.566667 0.733333 0 0 0.433333 1 0 1 0.5 0.6 0 0 0.633333 0.7
0.833333 0.9 0 0 0 0 0.5 0.566667 0.633333 0.9 0 0 0 0;
#X obj 321 280 pianoroll pianoroll1 192 186 -0 1 31 16 0 0 1 0 1 0
1 0 1 0 1 0 1 0.9 1 0.9 1 0.9 1 0.9 1 0 1 0 1 0 1 0 1 0 1 0 1 0 0;
#X obj 319 492 pianoroll pianoroll1 192 186 0 1 31 16 0 0 1 0 1 0 1
0 1 0 1 0 1 0 1 0 1 0 1 0 1 0 1 0 1 0.9 1 0.9 1 0.9 1 0.9 1 0 1;
#X obj 318 31 pianoroll pianoroll2 192 186 0 1 31 16 0 0 1 0 1 0.433333
1 0.366667 1 0.366667 1 0.633333 1 0.7 1 0.933333 1 0.666667 0.766667
0.6 0.633333 0.533333 0.466667 0.633333 0.3 0.433333 0.2 0.3 0.133333
0.166667 0.1 0 0.0333333 0 0;
#X obj 34 412 makenote;
#X obj 37 450 noteout;
#X obj 125 442 \$1;
#X text 122 420 midi channel;
#X obj 86 380 100;
#X obj 516 30 pianoroll pianoroll2 192 186 0 1 31 16 0 0 1 0 1 0.6
1 0.866667 1 0.866667 1 0.866667 1 0.866667 1 0.866667 0.866667 0.866667
1 0.866667 0.833333 0.866667 1 0.6 1 0.433333 1 0.233333 1 0.166667
1 0.0333333 1 0 1;
#X obj 9 83 + 1;
#X obj 40 82 f 0;
#X obj 128 53 select 1;
#X msg 64 -18 stop;
#X msg 218 96 0;
#X obj 527 316 hsv2rgb;
#X obj 527 289 pack 0 0 0;
#X obj 545 257 t b f;
#X obj 582 257 t b f;
#X text 306 224 hue;
#X text 431 224 sat;
#X text 540 217 value;
#X obj -2 -16 inlet;
#X obj 315 712 * 255;
#X obj 533 731 outlet;
#X obj 522 380 * 255;
#X obj 551 405 * 255;
#X obj 599 405 * 255;
#X obj 528 440 pack 0 0 0;
#X obj 225 556 * 255;
#X obj 526 348 unpack 0 0 0;
#X obj 128 30 >= 15;
#X obj 360 230 line;
#X obj 454 225 line;
#X obj 627 230 line;
#X obj 237 484 line;
#X obj 314 689 line;
#X obj 32 34 metro;
#X obj 152 -17 t b b;
#X msg 246 -9 700;
#X obj 43 149 nbx 5 14 -1e+37 1e+37 0 0 empty empty step 0 -8 0 10
-262144 -1 -1 15 256;
#X connect 5 0 9 0;
#X connect 5 1 9 1;
#X connect 6 0 40 0;
#X connect 7 0 41 0;
#X connect 8 0 37 0;
#X connect 8 1 38 0;
#X connect 9 0 10 0;
#X connect 9 1 10 1;
#X connect 11 0 10 2;
#X connect 13 0 9 2;
#X connect 14 0 39 0;
#X connect 15 0 16 1;
#X connect 16 0 15 0;
#X connect 16 0 5 0;
#X connect 16 0 8 0;
#X connect 16 0 14 0;
#X connect 16 0 6 0;
#X connect 16 0 7 0;
#X connect 16 0 36 0;
#X connect 16 0 45 0;
#X connect 17 0 18 0;
#X connect 17 0 19 0;
#X connect 18 0 42 0;
#X connect 19 0 16 0;
#X connect 20 0 35 0;
#X connect 21 0 20 0;
#X connect 22 0 21 0;
#X connect 22 1 21 1;
#X connect 23 0 21 0;
#X connect 23 1 21 2;
#X connect 27 0 42 0;
#X connect 28 0 3 0;
#X connect 30 0 33 0;
#X connect 31 0 33 1;
#X connect 32 0 33 2;
#X connect 33 0 29 0;
#X connect 34 0 1 0;
#X connect 35 0 30 0;
#X connect 35 1 31 0;
#X connect 35 2 32 0;
#X connect 36 0 17 0;
#X connect 37 0 21 0;
#X connect 38 0 22 0;
#X connect 39 0 23 0;
#X connect 40 0 34 0;
#X connect 41 0 28 0;
#X connect 42 0 43 0;
#X connect 43 0 16 0;
#X connect 43 1 44 0;
#X connect 44 0 37 1;
#X connect 44 0 38 1;
#X connect 44 0 39 1;
#X connect 44 0 40 1;
#X connect 44 0 41 1;
#X connect 44 0 42 1;
#X restore 35 49 pd storysquare 1;
#X obj 34 27 bng 15 250 50 0 empty empty touch 17 7 0 10 -262144 -1
-1;
#X obj 194 31 nbx 8 20 -1e+37 1e+37 0 0 empty empty red 0 28 0 14 -261234
-1 -1 0 256;
#X obj 314 31 nbx 8 20 -1e+37 1e+37 0 0 empty empty green 0 28 0 14
-204786 -1 -1 0 256;
#X obj 434 31 nbx 8 20 -1e+37 1e+37 0 0 empty empty blue 0 28 0 14
-203904 -1 -1 0 256;
#X obj 457 74 unpack f f f;
#X obj 195 75 nbx 8 20 -1e+37 1e+37 0 0 empty empty white 0 28 0 14
-262144 -1 -1 0 256;
#X obj 316 76 nbx 8 20 -1e+37 1e+37 0 0 empty empty uv 0 28 0 14 -159808
-1 -1 0 256;
#X obj 36 127 bng 15 250 50 0 empty empty touch 17 7 0 10 -262144 -1
-1;
#X obj 196 131 nbx 8 20 -1e+37 1e+37 0 0 empty empty red 0 28 0 14
-261234 -1 -1 0 256;
#X obj 316 131 nbx 8 20 -1e+37 1e+37 0 0 empty empty green 0 28 0 14
-204786 -1 -1 0 256;
#X obj 436 131 nbx 8 20 -1e+37 1e+37 0 0 empty empty blue 0 28 0 14
-203904 -1 -1 0 256;
#X obj 459 174 unpack f f f;
#X obj 197 175 nbx 8 20 -1e+37 1e+37 0 0 empty empty white 0 28 0 14
-262144 -1 -1 0 256;
#X obj 318 176 nbx 8 20 -1e+37 1e+37 0 0 empty empty uv 0 28 0 14 -159808
-1 -1 0 256;
#X obj 36 227 bng 15 250 50 0 empty empty touch 17 7 0 10 -262144 -1
-1;
#X obj 196 231 nbx 8 20 -1e+37 1e+37 0 0 empty empty red 0 28 0 14
-261234 -1 -1 0 256;
#X obj 316 231 nbx 8 20 -1e+37 1e+37 0 0 empty empty green 0 28 0 14
-204786 -1 -1 0 256;
#X obj 436 231 nbx 8 20 -1e+37 1e+37 0 0 empty empty blue 0 28 0 14
-203904 -1 -1 0 256;
#X obj 459 274 unpack f f f;
#X obj 197 275 nbx 8 20 -1e+37 1e+37 0 0 empty empty white 0 28 0 14
-262144 -1 -1 0 256;
#X obj 318 276 nbx 8 20 -1e+37 1e+37 0 0 empty empty uv 0 28 0 14 -159808
-1 -1 0 256;
#X obj 35 327 bng 15 250 50 0 empty empty touch 17 7 0 10 -262144 -1
-1;
#X obj 195 331 nbx 8 20 -1e+37 1e+37 0 0 empty empty red 0 28 0 14
-261234 -1 -1 0 256;
#X obj 315 331 nbx 8 20 -1e+37 1e+37 0 0 empty empty green 0 28 0 14
-204786 -1 -1 0 256;
#X obj 435 331 nbx 8 20 -1e+37 1e+37 0 0 empty empty blue 0 28 0 14
-203904 -1 -1 0 256;
#X obj 458 374 unpack f f f;
#X obj 196 375 nbx 8 20 -1e+37 1e+37 0 0 empty empty white 0 28 0 14
-262144 -1 -1 0 256;
#X obj 317 376 nbx 8 20 -1e+37 1e+37 0 0 empty empty uv 0 28 0 14 -159808
-1 -1 0 256;
#X obj 38 433 bng 15 250 50 0 empty empty touch 17 7 0 10 -262144 -1
-1;
#X obj 198 437 nbx 8 20 -1e+37 1e+37 0 0 empty empty red 0 28 0 14
-261234 -1 -1 0 256;
#X obj 318 437 nbx 8 20 -1e+37 1e+37 0 0 empty empty green 0 28 0 14
-204786 -1 -1 0 256;
#X obj 438 437 nbx 8 20 -1e+37 1e+37 0 0 empty empty blue 0 28 0 14
-203904 -1 -1 0 256;
#X obj 461 480 unpack f f f;
#X obj 199 481 nbx 8 20 -1e+37 1e+37 0 0 empty empty white 0 28 0 14
-262144 -1 -1 0 256;
#X obj 320 482 nbx 8 20 -1e+37 1e+37 0 0 empty empty uv 0 28 0 14 -159808
-1 -1 0 256;
#X obj 38 533 bng 15 250 50 0 empty empty touch 17 7 0 10 -262144 -1
-1;
#X obj 198 537 nbx 8 20 -1e+37 1e+37 0 0 empty empty red 0 28 0 14
-261234 -1 -1 0 256;
#X obj 318 537 nbx 8 20 -1e+37 1e+37 0 0 empty empty green 0 28 0 14
-204786 -1 -1 0 256;
#X obj 438 537 nbx 8 20 -1e+37 1e+37 0 0 empty empty blue 0 28 0 14
-203904 -1 -1 0 256;
#X obj 461 580 unpack f f f;
#X obj 199 581 nbx 8 20 -1e+37 1e+37 0 0 empty empty white 0 28 0 14
-262144 -1 -1 0 256;
#X obj 320 582 nbx 8 20 -1e+37 1e+37 0 0 empty empty uv 0 28 0 14 -159808
-1 -1 0 256;
#X obj 37 633 bng 15 250 50 0 empty empty touch 17 7 0 10 -262144 -1
-1;
#X obj 197 637 nbx 8 20 -1e+37 1e+37 0 0 empty empty red 0 28 0 14
-261234 -1 -1 0 256;
#X obj 317 637 nbx 8 20 -1e+37 1e+37 0 0 empty empty green 0 28 0 14
-204786 -1 -1 0 256;
#X obj 437 637 nbx 8 20 -1e+37 1e+37 0 0 empty empty blue 0 28 0 14
-203904 -1 -1 0 256;
#X obj 460 680 unpack f f f;
#X obj 198 681 nbx 8 20 -1e+37 1e+37 0 0 empty empty white 0 28 0 14
-262144 -1 -1 0 256;
#X obj 319 682 nbx 8 20 -1e+37 1e+37 0 0 empty empty uv 0 28 0 14 -159808
-1 -1 0 256;
#N canvas 676 33 715 806 storysquare 0;
#X text 539 708 rgb;
#X obj 400 730 outlet;
#X text 398 710 white;
#X obj 459 730 outlet;
#X text 461 709 uv;
#X obj 34 172 pianoroll pianoroll1 192 186 0 1 31 16 0 0 1 0.566667
1 0 0 0.566667 0.733333 0 0 0.433333 1 0 1 0.5 0.6 0 0 0.633333 0.7
0.833333 0.9 0 0 0 0 0.5 0.566667 0.633333 0.9 0 0 0 0;
#X obj 321 280 pianoroll pianoroll1 192 186 -0 1 31 16 0 0 1 0 1 0
1 0 1 0 1 0 1 0.9 1 0.9 1 0.9 1 0.9 1 0 1 0 1 0 1 0 1 0 1 0 1 0 0;
#X obj 319 492 pianoroll pianoroll1 192 186 0 1 31 16 0 0 1 0 1 0 1
0 1 0 1 0 1 0 1 0 1 0 1 0 1 0 1 0 1 0.9 1 0.9 1 0.9 1 0.9 1 0 1;
#X obj 318 31 pianoroll pianoroll2 192 186 0 1 31 16 0 0 1 0 1 0.433333
1 0.366667 1 0.366667 1 0.633333 1 0.7 1 0.933333 1 0.666667 0.766667
0.6 0.633333 0.533333 0.466667 0.633333 0.3 0.433333 0.2 0.3 0.133333
0.166667 0.1 0 0.0333333 0 0;
#X obj 34 412 makenote;
#X obj 37 450 noteout;
#X obj 125 442 \$1;
#X text 122 420 midi channel;
#X obj 86 380 100;
#X obj 516 30 pianoroll pianoroll2 192 186 0 1 31 16 0 0 1 0 1 0.6
1 0.866667 1 0.866667 1 0.866667 1 0.866667 1 0.866667 0.866667 0.866667
1 0.866667 0.833333 0.866667 1 0.6 1 0.433333 1 0.233333 1 0.166667
1 0.0333333 1 0 1;
#X obj 9 83 + 1;
#X obj 40 82 f 0;
#X obj 128 53 select 1;
#X msg 64 -18 stop;
#X msg 218 96 0;
#X obj 527 316 hsv2rgb;
#X obj 527 289 pack 0 0 0;
#X obj 545 257 t b f;
#X obj 582 257 t b f;
#X text 306 224 hue;
#X text 431 224 sat;
#X text 540 217 value;
#X obj -2 -16 inlet;
#X obj 315 712 * 255;
#X obj 533 731 outlet;
#X obj 522 380 * 255;
#X obj 551 405 * 255;
#X obj 599 405 * 255;
#X obj 528 440 pack 0 0 0;
#X obj 225 556 * 255;
#X obj 526 348 unpack 0 0 0;
#X obj 128 30 >= 15;
#X obj 360 230 line;
#X obj 454 225 line;
#X obj 627 230 line;
#X obj 237 484 line;
#X obj 314 689 line;
#X obj 32 34 metro;
#X obj 152 -17 t b b;
#X msg 246 -9 700;
#X obj 43 149 nbx 5 14 -1e+37 1e+37 0 0 empty empty step 0 -8 0 10
-262144 -1 -1 15 256;
#X connect 5 0 9 0;
#X connect 5 1 9 1;
#X connect 6 0 40 0;
#X connect 7 0 41 0;
#X connect 8 0 37 0;
#X connect 8 1 38 0;
#X connect 9 0 10 0;
#X connect 9 1 10 1;
#X connect 11 0 10 2;
#X connect 13 0 9 2;
#X connect 14 0 39 0;
#X connect 15 0 16 1;
#X connect 16 0 15 0;
#X connect 16 0 5 0;
#X connect 16 0 8 0;
#X connect 16 0 14 0;
#X connect 16 0 6 0;
#X connect 16 0 7 0;
#X connect 16 0 36 0;
#X connect 16 0 45 0;
#X connect 17 0 18 0;
#X connect 17 0 19 0;
#X connect 18 0 42 0;
#X connect 19 0 16 0;
#X connect 20 0 35 0;
#X connect 21 0 20 0;
#X connect 22 0 21 0;
#X connect 22 1 21 1;
#X connect 23 0 21 0;
#X connect 23 1 21 2;
#X connect 27 0 42 0;
#X connect 28 0 3 0;
#X connect 30 0 33 0;
#X connect 31 0 33 1;
#X connect 32 0 33 2;
#X connect 33 0 29 0;
#X connect 34 0 1 0;
#X connect 35 0 30 0;
#X connect 35 1 31 0;
#X connect 35 2 32 0;
#X connect 36 0 17 0;
#X connect 37 0 21 0;
#X connect 38 0 22 0;
#X connect 39 0 23 0;
#X connect 40 0 34 0;
#X connect 41 0 28 0;
#X connect 42 0 43 0;
#X connect 43 0 16 0;
#X connect 43 1 44 0;
#X connect 44 0 37 1;
#X connect 44 0 38 1;
#X connect 44 0 39 1;
#X connect 44 0 40 1;
#X connect 44 0 41 1;
#X connect 44 0 42 1;
#X restore 37 149 pd storysquare 2;
#N canvas 676 33 715 806 storysquare 0;
#X text 539 708 rgb;
#X obj 400 730 outlet;
#X text 398 710 white;
#X obj 459 730 outlet;
#X text 461 709 uv;
#X obj 34 172 pianoroll pianoroll1 192 186 0 1 31 16 0 0 1 0.566667
1 0 0 0.566667 0.733333 0 0 0.433333 1 0 1 0.5 0.6 0 0 0.633333 0.7
0.833333 0.9 0 0 0 0 0.5 0.566667 0.633333 0.9 0 0 0 0;
#X obj 321 280 pianoroll pianoroll1 192 186 -0 1 31 16 0 0 1 0 1 0
1 0 1 0 1 0 1 0.9 1 0.9 1 0.9 1 0.9 1 0 1 0 1 0 1 0 1 0 1 0 1 0 0;
#X obj 319 492 pianoroll pianoroll1 192 186 0 1 31 16 0 0 1 0 1 0 1
0 1 0 1 0 1 0 1 0 1 0 1 0 1 0 1 0 1 0.9 1 0.9 1 0.9 1 0.9 1 0 1;
#X obj 318 31 pianoroll pianoroll2 192 186 0 1 31 16 0 0 1 0 1 0.433333
1 0.366667 1 0.366667 1 0.633333 1 0.7 1 0.933333 1 0.666667 0.766667
0.6 0.633333 0.533333 0.466667 0.633333 0.3 0.433333 0.2 0.3 0.133333
0.166667 0.1 0 0.0333333 0 0;
#X obj 34 412 makenote;
#X obj 37 450 noteout;
#X obj 125 442 \$1;
#X text 122 420 midi channel;
#X obj 86 380 100;
#X obj 516 30 pianoroll pianoroll2 192 186 0 1 31 16 0 0 1 0 1 0.6
1 0.866667 1 0.866667 1 0.866667 1 0.866667 1 0.866667 0.866667 0.866667
1 0.866667 0.833333 0.866667 1 0.6 1 0.433333 1 0.233333 1 0.166667
1 0.0333333 1 0 1;
#X obj 9 83 + 1;
#X obj 40 82 f 0;
#X obj 128 53 select 1;
#X msg 64 -18 stop;
#X msg 218 96 0;
#X obj 527 316 hsv2rgb;
#X obj 527 289 pack 0 0 0;
#X obj 545 257 t b f;
#X obj 582 257 t b f;
#X text 306 224 hue;
#X text 431 224 sat;
#X text 540 217 value;
#X obj -2 -16 inlet;
#X obj 315 712 * 255;
#X obj 533 731 outlet;
#X obj 522 380 * 255;
#X obj 551 405 * 255;
#X obj 599 405 * 255;
#X obj 528 440 pack 0 0 0;
#X obj 225 556 * 255;
#X obj 526 348 unpack 0 0 0;
#X obj 128 30 >= 15;
#X obj 360 230 line;
#X obj 454 225 line;
#X obj 627 230 line;
#X obj 237 484 line;
#X obj 314 689 line;
#X obj 32 34 metro;
#X obj 152 -17 t b b;
#X msg 246 -9 700;
#X obj 43 149 nbx 5 14 -1e+37 1e+37 0 0 empty empty step 0 -8 0 10
-262144 -1 -1 15 256;
#X connect 5 0 9 0;
#X connect 5 1 9 1;
#X connect 6 0 40 0;
#X connect 7 0 41 0;
#X connect 8 0 37 0;
#X connect 8 1 38 0;
#X connect 9 0 10 0;
#X connect 9 1 10 1;
#X connect 11 0 10 2;
#X connect 13 0 9 2;
#X connect 14 0 39 0;
#X connect 15 0 16 1;
#X connect 16 0 15 0;
#X connect 16 0 5 0;
#X connect 16 0 8 0;
#X connect 16 0 14 0;
#X connect 16 0 6 0;
#X connect 16 0 7 0;
#X connect 16 0 36 0;
#X connect 16 0 45 0;
#X connect 17 0 18 0;
#X connect 17 0 19 0;
#X connect 18 0 42 0;
#X connect 19 0 16 0;
#X connect 20 0 35 0;
#X connect 21 0 20 0;
#X connect 22 0 21 0;
#X connect 22 1 21 1;
#X connect 23 0 21 0;
#X connect 23 1 21 2;
#X connect 27 0 42 0;
#X connect 28 0 3 0;
#X connect 30 0 33 0;
#X connect 31 0 33 1;
#X connect 32 0 33 2;
#X connect 33 0 29 0;
#X connect 34 0 1 0;
#X connect 35 0 30 0;
#X connect 35 1 31 0;
#X connect 35 2 32 0;
#X connect 36 0 17 0;
#X connect 37 0 21 0;
#X connect 38 0 22 0;
#X connect 39 0 23 0;
#X connect 40 0 34 0;
#X connect 41 0 28 0;
#X connect 42 0 43 0;
#X connect 43 0 16 0;
#X connect 43 1 44 0;
#X connect 44 0 37 1;
#X connect 44 0 38 1;
#X connect 44 0 39 1;
#X connect 44 0 40 1;
#X connect 44 0 41 1;
#X connect 44 0 42 1;
#X restore 37 249 pd storysquare 3;
#N canvas 676 33 715 806 storysquare 0;
#X text 539 708 rgb;
#X obj 400 730 outlet;
#X text 398 710 white;
#X obj 459 730 outlet;
#X text 461 709 uv;
#X obj 34 172 pianoroll pianoroll1 192 186 0 1 31 16 0 0 1 0.566667
1 0 0 0.566667 0.733333 0 0 0.433333 1 0 1 0.5 0.6 0 0 0.633333 0.7
0.833333 0.9 0 0 0 0 0.5 0.566667 0.633333 0.9 0 0 0 0;
#X obj 321 280 pianoroll pianoroll1 192 186 -0 1 31 16 0 0 1 0 1 0
1 0 1 0 1 0 1 0.9 1 0.9 1 0.9 1 0.9 1 0 1 0 1 0 1 0 1 0 1 0 1 0 0;
#X obj 319 492 pianoroll pianoroll1 192 186 0 1 31 16 0 0 1 0 1 0 1
0 1 0 1 0 1 0 1 0 1 0 1 0 1 0 1 0 1 0.9 1 0.9 1 0.9 1 0.9 1 0 1;
#X obj 318 31 pianoroll pianoroll2 192 186 0 1 31 16 0 0 1 0 1 0.433333
1 0.366667 1 0.366667 1 0.633333 1 0.7 1 0.933333 1 0.666667 0.766667
0.6 0.633333 0.533333 0.466667 0.633333 0.3 0.433333 0.2 0.3 0.133333
0.166667 0.1 0 0.0333333 0 0;
#X obj 34 412 makenote;
#X obj 37 450 noteout;
#X obj 125 442 \$1;
#X text 122 420 midi channel;
#X obj 86 380 100;
#X obj 516 30 pianoroll pianoroll2 192 186 0 1 31 16 0 0 1 0 1 0.6
1 0.866667 1 0.866667 1 0.866667 1 0.866667 1 0.866667 0.866667 0.866667
1 0.866667 0.833333 0.866667 1 0.6 1 0.433333 1 0.233333 1 0.166667
1 0.0333333 1 0 1;
#X obj 9 83 + 1;
#X obj 40 82 f 0;
#X obj 128 53 select 1;
#X msg 64 -18 stop;
#X msg 218 96 0;
#X obj 527 316 hsv2rgb;
#X obj 527 289 pack 0 0 0;
#X obj 545 257 t b f;
#X obj 582 257 t b f;
#X text 306 224 hue;
#X text 431 224 sat;
#X text 540 217 value;
#X obj -2 -16 inlet;
#X obj 315 712 * 255;
#X obj 533 731 outlet;
#X obj 522 380 * 255;
#X obj 551 405 * 255;
#X obj 599 405 * 255;
#X obj 528 440 pack 0 0 0;
#X obj 225 556 * 255;
#X obj 526 348 unpack 0 0 0;
#X obj 128 30 >= 15;
#X obj 360 230 line;
#X obj 454 225 line;
#X obj 627 230 line;
#X obj 237 484 line;
#X obj 314 689 line;
#X obj 32 34 metro;
#X obj 152 -17 t b b;
#X msg 246 -9 700;
#X obj 43 149 nbx 5 14 -1e+37 1e+37 0 0 empty empty step 0 -8 0 10
-262144 -1 -1 15 256;
#X connect 5 0 9 0;
#X connect 5 1 9 1;
#X connect 6 0 40 0;
#X connect 7 0 41 0;
#X connect 8 0 37 0;
#X connect 8 1 38 0;
#X connect 9 0 10 0;
#X connect 9 1 10 1;
#X connect 11 0 10 2;
#X connect 13 0 9 2;
#X connect 14 0 39 0;
#X connect 15 0 16 1;
#X connect 16 0 15 0;
#X connect 16 0 5 0;
#X connect 16 0 8 0;
#X connect 16 0 14 0;
#X connect 16 0 6 0;
#X connect 16 0 7 0;
#X connect 16 0 36 0;
#X connect 16 0 45 0;
#X connect 17 0 18 0;
#X connect 17 0 19 0;
#X connect 18 0 42 0;
#X connect 19 0 16 0;
#X connect 20 0 35 0;
#X connect 21 0 20 0;
#X connect 22 0 21 0;
#X connect 22 1 21 1;
#X connect 23 0 21 0;
#X connect 23 1 21 2;
#X connect 27 0 42 0;
#X connect 28 0 3 0;
#X connect 30 0 33 0;
#X connect 31 0 33 1;
#X connect 32 0 33 2;
#X connect 33 0 29 0;
#X connect 34 0 1 0;
#X connect 35 0 30 0;
#X connect 35 1 31 0;
#X connect 35 2 32 0;
#X connect 36 0 17 0;
#X connect 37 0 21 0;
#X connect 38 0 22 0;
#X connect 39 0 23 0;
#X connect 40 0 34 0;
#X connect 41 0 28 0;
#X connect 42 0 43 0;
#X connect 43 0 16 0;
#X connect 43 1 44 0;
#X connect 44 0 37 1;
#X connect 44 0 38 1;
#X connect 44 0 39 1;
#X connect 44 0 40 1;
#X connect 44 0 41 1;
#X connect 44 0 42 1;
#X restore 36 349 pd storysquare 4;
#N canvas 676 33 715 806 storysquare 0;
#X text 539 708 rgb;
#X obj 400 730 outlet;
#X text 398 710 white;
#X obj 459 730 outlet;
#X text 461 709 uv;
#X obj 34 172 pianoroll pianoroll1 192 186 0 1 31 16 0 0 1 0.566667
1 0 0 0.566667 0.733333 0 0 0.433333 1 0 1 0.5 0.6 0 0 0.633333 0.7
0.833333 0.9 0 0 0 0 0.5 0.566667 0.633333 0.9 0 0 0 0;
#X obj 321 280 pianoroll pianoroll1 192 186 -0 1 31 16 0 0 1 0 1 0
1 0 1 0 1 0 1 0.9 1 0.9 1 0.9 1 0.9 1 0 1 0 1 0 1 0 1 0 1 0 1 0 0;
#X obj 319 492 pianoroll pianoroll1 192 186 0 1 31 16 0 0 1 0 1 0 1
0 1 0 1 0 1 0 1 0 1 0 1 0 1 0 1 0 1 0.9 1 0.9 1 0.9 1 0.9 1 0 1;
#X obj 318 31 pianoroll pianoroll2 192 186 0 1 31 16 0 0 1 0 1 0.433333
1 0.366667 1 0.366667 1 0.633333 1 0.7 1 0.933333 1 0.666667 0.766667
0.6 0.633333 0.533333 0.466667 0.633333 0.3 0.433333 0.2 0.3 0.133333
0.166667 0.1 0 0.0333333 0 0;
#X obj 34 412 makenote;
#X obj 37 450 noteout;
#X obj 125 442 \$1;
#X text 122 420 midi channel;
#X obj 86 380 100;
#X obj 516 30 pianoroll pianoroll2 192 186 0 1 31 16 0 0 1 0 1 0.6
1 0.866667 1 0.866667 1 0.866667 1 0.866667 1 0.866667 0.866667 0.866667
1 0.866667 0.833333 0.866667 1 0.6 1 0.433333 1 0.233333 1 0.166667
1 0.0333333 1 0 1;
#X obj 9 83 + 1;
#X obj 40 82 f 0;
#X obj 128 53 select 1;
#X msg 64 -18 stop;
#X msg 218 96 0;
#X obj 527 316 hsv2rgb;
#X obj 527 289 pack 0 0 0;
#X obj 545 257 t b f;
#X obj 582 257 t b f;
#X text 306 224 hue;
#X text 431 224 sat;
#X text 540 217 value;
#X obj -2 -16 inlet;
#X obj 315 712 * 255;
#X obj 533 731 outlet;
#X obj 522 380 * 255;
#X obj 551 405 * 255;
#X obj 599 405 * 255;
#X obj 528 440 pack 0 0 0;
#X obj 225 556 * 255;
#X obj 526 348 unpack 0 0 0;
#X obj 128 30 >= 15;
#X obj 360 230 line;
#X obj 454 225 line;
#X obj 627 230 line;
#X obj 237 484 line;
#X obj 314 689 line;
#X obj 32 34 metro;
#X obj 152 -17 t b b;
#X msg 246 -9 700;
#X obj 43 149 nbx 5 14 -1e+37 1e+37 0 0 empty empty step 0 -8 0 10
-262144 -1 -1 15 256;
#X connect 5 0 9 0;
#X connect 5 1 9 1;
#X connect 6 0 40 0;
#X connect 7 0 41 0;
#X connect 8 0 37 0;
#X connect 8 1 38 0;
#X connect 9 0 10 0;
#X connect 9 1 10 1;
#X connect 11 0 10 2;
#X connect 13 0 9 2;
#X connect 14 0 39 0;
#X connect 15 0 16 1;
#X connect 16 0 15 0;
#X connect 16 0 5 0;
#X connect 16 0 8 0;
#X connect 16 0 14 0;
#X connect 16 0 6 0;
#X connect 16 0 7 0;
#X connect 16 0 36 0;
#X connect 16 0 45 0;
#X connect 17 0 18 0;
#X connect 17 0 19 0;
#X connect 18 0 42 0;
#X connect 19 0 16 0;
#X connect 20 0 35 0;
#X connect 21 0 20 0;
#X connect 22 0 21 0;
#X connect 22 1 21 1;
#X connect 23 0 21 0;
#X connect 23 1 21 2;
#X connect 27 0 42 0;
#X connect 28 0 3 0;
#X connect 30 0 33 0;
#X connect 31 0 33 1;
#X connect 32 0 33 2;
#X connect 33 0 29 0;
#X connect 34 0 1 0;
#X connect 35 0 30 0;
#X connect 35 1 31 0;
#X connect 35 2 32 0;
#X connect 36 0 17 0;
#X connect 37 0 21 0;
#X connect 38 0 22 0;
#X connect 39 0 23 0;
#X connect 40 0 34 0;
#X connect 41 0 28 0;
#X connect 42 0 43 0;
#X connect 43 0 16 0;
#X connect 43 1 44 0;
#X connect 44 0 37 1;
#X connect 44 0 38 1;
#X connect 44 0 39 1;
#X connect 44 0 40 1;
#X connect 44 0 41 1;
#X connect 44 0 42 1;
#X restore 39 455 pd storysquare 5;
#N canvas 676 33 715 806 storysquare 0;
#X text 539 708 rgb;
#X obj 400 730 outlet;
#X text 398 710 white;
#X obj 459 730 outlet;
#X text 461 709 uv;
#X obj 34 172 pianoroll pianoroll1 192 186 0 1 31 16 0 0 1 0.566667
1 0 0 0.566667 0.733333 0 0 0.433333 1 0 1 0.5 0.6 0 0 0.633333 0.7
0.833333 0.9 0 0 0 0 0.5 0.566667 0.633333 0.9 0 0 0 0;
#X obj 321 280 pianoroll pianoroll1 192 186 -0 1 31 16 0 0 1 0 1 0
1 0 1 0 1 0 1 0.9 1 0.9 1 0.9 1 0.9 1 0 1 0 1 0 1 0 1 0 1 0 1 0 0;
#X obj 319 492 pianoroll pianoroll1 192 186 0 1 31 16 0 0 1 0 1 0 1
0 1 0 1 0 1 0 1 0 1 0 1 0 1 0 1 0 1 0.9 1 0.9 1 0.9 1 0.9 1 0 1;
#X obj 318 31 pianoroll pianoroll2 192 186 0 1 31 16 0 0 1 0 1 0.433333
1 0.366667 1 0.366667 1 0.633333 1 0.7 1 0.933333 1 0.666667 0.766667
0.6 0.633333 0.533333 0.466667 0.633333 0.3 0.433333 0.2 0.3 0.133333
0.166667 0.1 0 0.0333333 0 0;
#X obj 34 412 makenote;
#X obj 37 450 noteout;
#X obj 125 442 \$1;
#X text 122 420 midi channel;
#X obj 86 380 100;
#X obj 516 30 pianoroll pianoroll2 192 186 0 1 31 16 0 0 1 0 1 0.6
1 0.866667 1 0.866667 1 0.866667 1 0.866667 1 0.866667 0.866667 0.866667
1 0.866667 0.833333 0.866667 1 0.6 1 0.433333 1 0.233333 1 0.166667
1 0.0333333 1 0 1;
#X obj 9 83 + 1;
#X obj 40 82 f 0;
#X obj 128 53 select 1;
#X msg 64 -18 stop;
#X msg 218 96 0;
#X obj 527 316 hsv2rgb;
#X obj 527 289 pack 0 0 0;
#X obj 545 257 t b f;
#X obj 582 257 t b f;
#X text 306 224 hue;
#X text 431 224 sat;
#X text 540 217 value;
#X obj -2 -16 inlet;
#X obj 315 712 * 255;
#X obj 533 731 outlet;
#X obj 522 380 * 255;
#X obj 551 405 * 255;
#X obj 599 405 * 255;
#X obj 528 440 pack 0 0 0;
#X obj 225 556 * 255;
#X obj 526 348 unpack 0 0 0;
#X obj 128 30 >= 15;
#X obj 360 230 line;
#X obj 454 225 line;
#X obj 627 230 line;
#X obj 237 484 line;
#X obj 314 689 line;
#X obj 32 34 metro;
#X obj 152 -17 t b b;
#X msg 246 -9 700;
#X obj 43 149 nbx 5 14 -1e+37 1e+37 0 0 empty empty step 0 -8 0 10
-262144 -1 -1 15 256;
#X connect 5 0 9 0;
#X connect 5 1 9 1;
#X connect 6 0 40 0;
#X connect 7 0 41 0;
#X connect 8 0 37 0;
#X connect 8 1 38 0;
#X connect 9 0 10 0;
#X connect 9 1 10 1;
#X connect 11 0 10 2;
#X connect 13 0 9 2;
#X connect 14 0 39 0;
#X connect 15 0 16 1;
#X connect 16 0 15 0;
#X connect 16 0 5 0;
#X connect 16 0 8 0;
#X connect 16 0 14 0;
#X connect 16 0 6 0;
#X connect 16 0 7 0;
#X connect 16 0 36 0;
#X connect 16 0 45 0;
#X connect 17 0 18 0;
#X connect 17 0 19 0;
#X connect 18 0 42 0;
#X connect 19 0 16 0;
#X connect 20 0 35 0;
#X connect 21 0 20 0;
#X connect 22 0 21 0;
#X connect 22 1 21 1;
#X connect 23 0 21 0;
#X connect 23 1 21 2;
#X connect 27 0 42 0;
#X connect 28 0 3 0;
#X connect 30 0 33 0;
#X connect 31 0 33 1;
#X connect 32 0 33 2;
#X connect 33 0 29 0;
#X connect 34 0 1 0;
#X connect 35 0 30 0;
#X connect 35 1 31 0;
#X connect 35 2 32 0;
#X connect 36 0 17 0;
#X connect 37 0 21 0;
#X connect 38 0 22 0;
#X connect 39 0 23 0;
#X connect 40 0 34 0;
#X connect 41 0 28 0;
#X connect 42 0 43 0;
#X connect 43 0 16 0;
#X connect 43 1 44 0;
#X connect 44 0 37 1;
#X connect 44 0 38 1;
#X connect 44 0 39 1;
#X connect 44 0 40 1;
#X connect 44 0 41 1;
#X connect 44 0 42 1;
#X restore 39 555 pd storysquare 6;
#N canvas 676 33 715 806 storysquare 0;
#X text 539 708 rgb;
#X obj 400 730 outlet;
#X text 398 710 white;
#X obj 459 730 outlet;
#X text 461 709 uv;
#X obj 34 172 pianoroll pianoroll1 192 186 0 1 31 16 0 0 1 0.566667
1 0 0 0.566667 0.733333 0 0 0.433333 1 0 1 0.5 0.6 0 0 0.633333 0.7
0.833333 0.9 0 0 0 0 0.5 0.566667 0.633333 0.9 0 0 0 0;
#X obj 321 280 pianoroll pianoroll1 192 186 -0 1 31 16 0 0 1 0 1 0
1 0 1 0 1 0 1 0.9 1 0.9 1 0.9 1 0.9 1 0 1 0 1 0 1 0 1 0 1 0 1 0 0;
#X obj 319 492 pianoroll pianoroll1 192 186 0 1 31 16 0 0 1 0 1 0 1
0 1 0 1 0 1 0 1 0 1 0 1 0 1 0 1 0 1 0.9 1 0.9 1 0.9 1 0.9 1 0 1;
#X obj 318 31 pianoroll pianoroll2 192 186 0 1 31 16 0 0 1 0 1 0.433333
1 0.366667 1 0.366667 1 0.633333 1 0.7 1 0.933333 1 0.666667 0.766667
0.6 0.633333 0.533333 0.466667 0.633333 0.3 0.433333 0.2 0.3 0.133333
0.166667 0.1 0 0.0333333 0 0;
#X obj 34 412 makenote;
#X obj 37 450 noteout;
#X obj 125 442 \$1;
#X text 122 420 midi channel;
#X obj 86 380 100;
#X obj 516 30 pianoroll pianoroll2 192 186 0 1 31 16 0 0 1 0 1 0.6
1 0.866667 1 0.866667 1 0.866667 1 0.866667 1 0.866667 0.866667 0.866667
1 0.866667 0.833333 0.866667 1 0.6 1 0.433333 1 0.233333 1 0.166667
1 0.0333333 1 0 1;
#X obj 9 83 + 1;
#X obj 40 82 f 0;
#X obj 128 53 select 1;
#X msg 64 -18 stop;
#X msg 218 96 0;
#X obj 527 316 hsv2rgb;
#X obj 527 289 pack 0 0 0;
#X obj 545 257 t b f;
#X obj 582 257 t b f;
#X text 306 224 hue;
#X text 431 224 sat;
#X text 540 217 value;
#X obj -2 -16 inlet;
#X obj 315 712 * 255;
#X obj 533 731 outlet;
#X obj 522 380 * 255;
#X obj 551 405 * 255;
#X obj 599 405 * 255;
#X obj 528 440 pack 0 0 0;
#X obj 225 556 * 255;
#X obj 526 348 unpack 0 0 0;
#X obj 128 30 >= 15;
#X obj 360 230 line;
#X obj 454 225 line;
#X obj 627 230 line;
#X obj 237 484 line;
#X obj 314 689 line;
#X obj 32 34 metro;
#X obj 152 -17 t b b;
#X msg 246 -9 700;
#X obj 43 149 nbx 5 14 -1e+37 1e+37 0 0 empty empty step 0 -8 0 10
-262144 -1 -1 15 256;
#X connect 5 0 9 0;
#X connect 5 1 9 1;
#X connect 6 0 40 0;
#X connect 7 0 41 0;
#X connect 8 0 37 0;
#X connect 8 1 38 0;
#X connect 9 0 10 0;
#X connect 9 1 10 1;
#X connect 11 0 10 2;
#X connect 13 0 9 2;
#X connect 14 0 39 0;
#X connect 15 0 16 1;
#X connect 16 0 15 0;
#X connect 16 0 5 0;
#X connect 16 0 8 0;
#X connect 16 0 14 0;
#X connect 16 0 6 0;
#X connect 16 0 7 0;
#X connect 16 0 36 0;
#X connect 16 0 45 0;
#X connect 17 0 18 0;
#X connect 17 0 19 0;
#X connect 18 0 42 0;
#X connect 19 0 16 0;
#X connect 20 0 35 0;
#X connect 21 0 20 0;
#X connect 22 0 21 0;
#X connect 22 1 21 1;
#X connect 23 0 21 0;
#X connect 23 1 21 2;
#X connect 27 0 42 0;
#X connect 28 0 3 0;
#X connect 30 0 33 0;
#X connect 31 0 33 1;
#X connect 32 0 33 2;
#X connect 33 0 29 0;
#X connect 34 0 1 0;
#X connect 35 0 30 0;
#X connect 35 1 31 0;
#X connect 35 2 32 0;
#X connect 36 0 17 0;
#X connect 37 0 21 0;
#X connect 38 0 22 0;
#X connect 39 0 23 0;
#X connect 40 0 34 0;
#X connect 41 0 28 0;
#X connect 42 0 43 0;
#X connect 43 0 16 0;
#X connect 43 1 44 0;
#X connect 44 0 37 1;
#X connect 44 0 38 1;
#X connect 44 0 39 1;
#X connect 44 0 40 1;
#X connect 44 0 41 1;
#X connect 44 0 42 1;
#X restore 38 655 pd storysquare 7;
#X connect 0 0 6 0;
#X connect 0 1 7 0;
#X connect 0 2 5 0;
#X connect 1 0 0 0;
#X connect 5 0 2 0;
#X connect 5 1 3 0;
#X connect 5 2 4 0;
#X connect 8 0 50 0;
#X connect 12 0 9 0;
#X connect 12 1 10 0;
#X connect 12 2 11 0;
#X connect 15 0 51 0;
#X connect 19 0 16 0;
#X connect 19 1 17 0;
#X connect 19 2 18 0;
#X connect 22 0 52 0;
#X connect 26 0 23 0;
#X connect 26 1 24 0;
#X connect 26 2 25 0;
#X connect 29 0 53 0;
#X connect 33 0 30 0;
#X connect 33 1 31 0;
#X connect 33 2 32 0;
#X connect 36 0 54 0;
#X connect 40 0 37 0;
#X connect 40 1 38 0;
#X connect 40 2 39 0;
#X connect 43 0 55 0;
#X connect 47 0 44 0;
#X connect 47 1 45 0;
#X connect 47 2 46 0;
#X connect 50 0 13 0;
#X connect 50 1 14 0;
#X connect 50 2 12 0;
#X connect 51 0 20 0;
#X connect 51 1 21 0;
#X connect 51 2 19 0;
#X connect 52 0 27 0;
#X connect 52 1 28 0;
#X connect 52 2 26 0;
#X connect 53 0 34 0;
#X connect 53 1 35 0;
#X connect 53 2 33 0;
#X connect 54 0 41 0;
#X connect 54 1 42 0;
#X connect 54 2 40 0;
#X connect 55 0 48 0;
#X connect 55 1 49 0;
#X connect 55 2 47 0;
