#N canvas 798 169 450 300 10;
#X obj 31 198 instrument-mode-prototype;
#X msg 687 425 devicename /dev/ttyS1;
#X obj 54 42 comport;
#X obj 54 157 sel 1 2 3 4 5 6 7;
#X obj 54 74 serialize 2;
#X obj 54 103 nroute 84 1;
#X text 130 104 route according to command (84 = T);
#X obj 54 131 list-idx 1;
#X text 193 11 change to desired node and click;
#X text 110 40 reads from serial 1 byte then sends it;
#X text 130 72 catch bytes and form 2 item lists;
#X text 126 133 inspect square number and send bang accordingly;
#X text 94 185 comment;
#X msg 54 12 devicename /dev/ptyp5;
#X text 3 74;
#X text 143 106;
#X connect 2 0 4 0;
#X connect 3 0 0 0;
#X connect 3 1 0 1;
#X connect 3 2 0 2;
#X connect 3 3 0 3;
#X connect 3 4 0 4;
#X connect 3 5 0 5;
#X connect 3 6 0 6;
#X connect 4 0 5 0;
#X connect 5 0 7 0;
#X connect 7 0 3 0;
#X connect 13 0 2 0;
