#N canvas 434 134 450 299 10;
#X obj 31 198 instrument-mode-prototype;
#X msg 687 425 devicename /dev/ttyS1;
#X msg 54 12 devicename /dev/pts/4;
#X obj 54 42 comport;
#X obj 54 157 sel 1 2 3 4 5 6 7;
#X obj 54 74 serialize 2;
#X text 3 74;
#X obj 54 103 nroute 84 1;
#X obj 337 185 iter;
#X text 94 185;
#X obj 231 163 print;
#X text 110 40 reads from serial automatically;
#X text 130 72 each command is 2 bytes;
#X text 143 106;
#X text 130 104 route according to command (84 = T);
#X obj 54 131 list-idx 1;
#X connect 2 0 3 0;
#X connect 3 0 5 0;
#X connect 4 0 0 0;
#X connect 4 1 0 1;
#X connect 4 2 0 2;
#X connect 4 3 0 3;
#X connect 4 4 0 4;
#X connect 4 5 0 5;
#X connect 4 6 0 6;
#X connect 5 0 7 0;
#X connect 7 0 15 0;
#X connect 15 0 4 0;
